 http://leetleech.org/images/87156681948861030906.jpg

Screens:
 
http://leetleech.org/images/66029214518509101562.jpg
 
http://leetleech.org/images/07319460830423763944.jpg
 
http://leetleech.org/images/54537548311592419413.jpg
 
http://leetleech.org/images/64882181168639192197.jpg

Alternative:
 
http://www.postimg.com/image/30000/29155.jpg
 
http://www.postimg.com/image/30000/29156.jpg
 
http://www.postimg.com/image/30000/29157.jpg
 
http://www.postimg.com/image/30000/29158.jpg

ScreenCaps:
 
http://www.postimg.com/image/30000/29159.jpg

The Fighter (2010) DVDRip XviD-MAX
Format                           : AVI
Format/Info                      : Audio Video Interleave
Format profile                   : OpenDML
File size                        : 1.15 GiB
Duration                         : 1h 55mn
Overall bit rate                 : 1 428 Kbps
Writing application              : VirtualDubMod 1.5.10.2 (build 2542/release)
Writing library                  : VirtualDubMod build 2542/release
Original source form             : MAX TORRENTZ
Copyright                        : SIGISMUNT

Video
ID                               : 0
Format                           : MPEG-4 Visual
Format profile                   : AdvancedSimple@L5
Format settings, BVOP            : Yes
Format settings, QPel            : No
Format settings, GMC             : No warppoints
Format settings, Matrix          : Default (H.263)
Muxing mode                      : Packed bitstream
Codec ID                         : XVID
Codec ID/Hint                    : XviD
Duration                         : 1h 55mn
Bit rate                         : 1 232 Kbps
Width                            : 608 pixels
Height                           : 256 pixels
Display aspect ratio             : 2.35:1
Frame rate                       : 23.976 fps
Resolution                       : 24 bits
Colorimetry                      : 4:2:0
Scan type                        : Progressive
Bits/(Pixel*Frame)               : 0.330
Stream size                      : 1 019 MiB (86%)
Writing library                  : XviD 57

Audio
ID                               : 1
Format                           : MPEG Audio
Format version                   : Version 1
Format profile                   : Layer 3
Codec ID                         : 55
Codec ID/Hint                    : MP3
Duration                         : 1h 55mn
Bit rate mode                    : Constant
Bit rate                         : 192 Kbps
Channel(s)                       : 2 channels
Sampling rate                    : 48.0 KHz
Resolution                       : 16 bits
Stream size                      : 159 MiB (13%)
Alignment                        : Aligned on interleaves
Interleave, duration             : 613 ms (14.70 video frames)
Interleave, preload duration     : 216 ms
Writing library                  : LAME3.98.2
 
Source: DVD (perfect a/v/sync quality with additional 400% volume,sample is included)
 
http://www.imdb.com/title/tt0964517/

The Fighter (2010) DVDRip XviD-MAX Torrent Free Download
 
http://thepiratebay.org/user/extremezone/0/7

How To Get Your Maxspeed (uTorrent)

Torrent Client - Preferences - Bandwidth - Number of connections - Set aprox. 500 for each 
Torrent Client - Preferences - BiTorrent - Protocol Encryption - Forced
Bandwidth Allocation - High (Set download/upload limit - Unlimited)
Stop Other Active Torrents - Start downloading and wait for connections.
Enjoy and Seed for at least 1:1 ratio. Don't forget to say thanks/leave reviews.
Before downloading you should check/google search sample "release name""sample".
Greets to all actual/future p2p/scene QUALITY groups and affiliate websites.
Don't trust IMDb robot or bad ratings,always watch some trailers first.
Ignore stupid comments/fake/mislabeled/no-DVDrips/CAM/TS/RAR uploads.
Please spread this release/torrent to your friends/forums/etc.
If you need translation subs visit some subtitles sites.
Report if you see online streaming or other spam links.
Recommended movie player VLC PLAYER.